<mxfile host="app.diagrams.net" modified="2024-03-25T12:55:21.009Z" agent="Mozilla/5.0 (X11; Linux x86_64) AppleWebKit/537.36 (KHTML, like Gecko) Chrome/122.0.0.0 Safari/537.36" version="24.0.8" etag="mu8VPZ-SWa6ZVte7iQ_6" type="github">
  <diagram name="PÃ¡gina-1" id="ssGSDhJQlJu-knsnq14J">
    <mxGraphModel>
      <root>
        <mxCell id="0" />
        <mxCell id="1" parent="0" />
      </root>
    </mxGraphModel>
  </diagram>
</mxfile>
